<svg xmlns="http://www.w3.org/2000/svg" viewBox="0 0 1480.97 909.28"><defs><style>.cls-1{fill:#e11d3f;}</style></defs><title>logo</title><g id="logo_Image" data-name="logo Image"><path class="cls-1" d="M448.44,130.4c43.48,1,94.75,41,82.37,91.56-6.08,22.6-28.9,41-31.1,66.39,9.19,2.8,18.47-2.46,26.2-11.64,16.51-40.62,100.94-46.15,67.27,16-16.1,23.86-30.51,34.81-75.41,41.2,87.73.94,137.41,58.17,117.49,80-25.31-3.23-51.72-5-77.6-9.55-17.62-18.62-36.52-37.67-63.2-44.83-115.13-31.43-276.56,27.08-260.35-58.15l.1-.21c6.52-20.55,43.16-30.26,64.57-15.52,9.8,5.09,20.39,27.13,37,27.06,22.16-30.35-58.88-38.09-75.09-63.71-12.35-15.77,25.94-71.27,98.1-34.72,16.87,11.55,34,20.14,41.86,49.87,2,3.83,3.22,7.63,8.27,10.59,4,8.08,54.46-2.94-6.77-61.61C347.21,173.4,391,131,448.44,130.4Z" transform="translate(-231.84 -130.4)"/><path class="cls-1" d="M419.66,517.52c-37.16-5.93-36.23-62.6,11.15-56.79C465.56,468.73,455.78,520.1,419.66,517.52Z" transform="translate(-231.84 -130.4)"/></g><g id="Hue_Saturation_1_Image" data-name="Hue/Saturation 1 Image"><path class="cls-1" d="M231.84,878.88v-13a24.59,24.59,0,0,0,.63-2.77c.78-6.59,1.25-13.22,2.29-19.76A142.14,142.14,0,0,1,264.58,776q40.4-50.52,105-54.32a179,179,0,0,1,34.23,1.22,152.36,152.36,0,0,1,33.86,8.37,116.89,116.89,0,0,1,21.51,10.48c4.66,3,5.39,4.74,4.05,10-2.37,9.37-4.78,18.73-7.41,28-3.36,11.91-6.92,23.78-10.48,35.64a29,29,0,0,1-2.47,5.69c-1.55,2.78-2.42,3-5.5,2.25-8.74-2.23-17.44-4.6-26.23-6.65-10.53-2.45-21.18-3.07-31.85-.76-20.37,4.4-33.86,16.47-40,36.41-3.15,10.18-3.35,20.65-1.77,31.12,1.7,11.3,6.33,21.24,14.6,29.3,10.81,10.55,24.07,15.36,38.86,16.57a70,70,0,0,0,31.48-4.73c6.62-2.57,13.16-5.33,20.07-8.13a15.71,15.71,0,0,1,1.95,2.36,29.64,29.64,0,0,1,2.29,5c1.54,4.79,3.06,9.59,4.32,14.46a438.54,438.54,0,0,1,8.53,43.26c.82,5.36,1.13,10.8,1.63,16.21a6.88,6.88,0,0,1-2.39,6,28.62,28.62,0,0,1-6.38,4.58,109,109,0,0,1-13.34,5.26c-9.76,3.08-19.82,5-29.88,6.75a178.71,178.71,0,0,1-24.5,2.87,164.55,164.55,0,0,1-26.8-1.28,143.34,143.34,0,0,1-35.64-9.06c-36.35-14.54-66.48-45.83-80.33-83.43a156.78,156.78,0,0,1-9.15-44C232.65,883.27,232.17,881.08,231.84,878.88Z" transform="translate(-231.84 -130.4)"/><path class="cls-1" d="M581.22,1039.68c-2-.32-3.89-.74-5.86-.94a100.83,100.83,0,0,1-38.52-11.47,81.22,81.22,0,0,1-31.33-30.65,231.2,231.2,0,0,1-28.44-73.89c-2.23-11.38-3.77-22.85-5-34.36,0-.4-.05-.8-.06-1.2-.22-8.95-.42-17.91-.65-26.86-.27-10-.66-20-.82-30-.13-8-.31-16,.09-24,1-19.46,3.8-38.66,9.92-57.21,7-21.08,21-36.08,40.94-45.59a53.76,53.76,0,0,1,20.29-5.19,6.91,6.91,0,0,0,1.56-.45h6.24a12.36,12.36,0,0,0,2.05.46,41.94,41.94,0,0,1,24.67,9.41c10,8.34,20.54,16.06,31.08,23.72a277,277,0,0,1,31.38,26.37c8.78,8.63,17.65,17.19,26.75,25.48,7.46,6.79,13.59,14.6,19.33,22.82a134.84,134.84,0,0,1,22.67,56.46,174.38,174.38,0,0,1,2.65,24.53A141.42,141.42,0,0,1,705,926.26c-7.25,27.27-19.5,52-37.59,73.76a113.26,113.26,0,0,1-38,30.23,91.13,91.13,0,0,1-30.53,8.52c-1.72.18-3.42.6-5.13.91ZM507.74,844.6l-.34,0c-.21,1.41-.43,2.81-.61,4.22-.72,6-1.33,11.91-2.17,17.85-1.59,11.32-3.05,22.64-3.22,34.1-.21,14.73.19,29.41,2.39,44a188.83,188.83,0,0,0,13.62,46.57c6.13,14.24,16,25.23,29.73,32.4a93.75,93.75,0,0,0,49.35,10.34,83.7,83.7,0,0,0,22.29-4.22c15.21-5.14,27.82-14.24,38.55-26,12.91-14.14,22-30.56,28.56-48.46a147.72,147.72,0,0,0,8.82-39.89,113,113,0,0,0-1-27.25A143.93,143.93,0,0,0,687,864.05a116,116,0,0,0-13.82-27.57c-6.4-9.28-14.36-17.16-22.34-25a4,4,0,0,0-.54-.47q-5-3.43-10.1-6.85c-.35-.23-.74-.41-1.12-.61a6.89,6.89,0,0,0,1.06,2.46,182.21,182.21,0,0,1,13,24.84c10.91,25.6,16.27,52.44,17.57,80.12a297.07,297.07,0,0,1-.36,34.54A336,336,0,0,1,665,986.82c-.37,1.92-.84,3.82-1.27,5.73.21-7.32.78-14.58,1-21.84.45-14.48.59-29-.21-43.42a346.31,346.31,0,0,0-3.92-36.93,247.38,247.38,0,0,0-14-51.72A184.88,184.88,0,0,0,615,786a19,19,0,0,0-2.55-2.53A238.5,238.5,0,0,0,590.8,768c-14.59-9.08-29.34-17.91-43-28.33-8.27,2-14.31,7.09-19.44,13.58,1.49,1.66,2.85,3.11,4.15,4.63a145,145,0,0,1,20.85,32.29,166.46,166.46,0,0,1,12.4,36.41,262.53,262.53,0,0,1,4.71,35.77c.52,6.84,1,13.67,1.43,20.51A219.86,219.86,0,0,0,575,909.25a123.82,123.82,0,0,0,12.27,36.61,110.17,110.17,0,0,0,16.9,23.74,130.59,130.59,0,0,0,20.5,17.63c1.93,1.35,3.88,2.69,5.82,4a1,1,0,0,1-1,0c-14.2-6.63-26.83-15.39-37.33-27.14a107.84,107.84,0,0,1-21.49-36.76c-4.68-13.44-6.83-27.35-8-41.45-.58-7-.94-14-1.46-21-.6-8.19-1.18-16.38-1.93-24.55a189,189,0,0,0-28.36-82.54c-.84-1.31-1.78-2.57-2.78-4-.46.59-.79.94-1,1.33a55.18,55.18,0,0,0-5.48,12.22A257.07,257.07,0,0,0,514.39,794c-1.13,5.16-2.49,10.26-1.82,15.63.19,1.5.22,3,.36,4.54.7,8,1.24,16.1,2.17,24.12,1.19,10.23,2.71,20.43,4.08,30.65,1.91,14.18,4.17,28.3,7.3,42.26a183.35,183.35,0,0,0,13.38,39.91c11.19,23.17,28.52,39.85,52.41,49.57a134.67,134.67,0,0,0,35.68,8.87c2.49.29,5,.61,7.45.92a123.78,123.78,0,0,1-30.33-2,105.37,105.37,0,0,1-39.93-16.11c-14.6-9.86-25.39-23-33.4-38.58-7-13.6-11.47-28.08-14.75-43-4-18.36-6.24-37-8.18-55.7C508.44,851.58,508.09,848.09,507.74,844.6Z" transform="translate(-231.84 -130.4)"/><path class="cls-1" d="M1033.5,767.79c9-6.73,18.78-12.12,28.29-17.84a199.2,199.2,0,0,1,30.12-15.23,105.77,105.77,0,0,1,26.35-6.84,99.75,99.75,0,0,1,18.45,0,111.12,111.12,0,0,1,25.86,4.76c13.14,4.18,25,10.54,34.73,20.51A61.7,61.7,0,0,1,1214.63,789a105.16,105.16,0,0,1,.89,13.39q.2,73.42.28,146.85c0,18.56.2,37.12.31,55.68v1.68c0,6.72-2.21,9.36-8.86,10.08a132.08,132.08,0,0,1-13.63.84c-17.91.1-35.83.16-53.74,0a192.75,192.75,0,0,1-19.35-1.38c-5.37-.59-8.37-3.69-9-9a82.16,82.16,0,0,1-.27-10.53c.22-11.19.6-22.38.82-33.58.33-17.35.86-34.71.78-52.06-.1-19.67-.75-39.34-1.22-59a48.32,48.32,0,0,0-3.27-16.62c-4.2-10.65-12.22-16.43-23.32-18.32a40.4,40.4,0,0,0-25.78,4.19c-6.66,3.4-12.94,7.34-18.19,12.72a39.79,39.79,0,0,0-4.22,5.2,17.06,17.06,0,0,0-3,10c0,2.08,0,4.16,0,6.24q0,74,0,148.06c0,1.52,0,3-.12,4.55-.41,5.06-3.44,8.28-8.54,8.74s-10.36.89-15.55.93c-16.71.11-33.43.17-50.14,0-6.7-.08-13.39-.87-20.08-1.35a12.71,12.71,0,0,1-2.11-.42c-5.05-1.29-7.27-4-7.33-9.23-.08-6.16,0-12.32,0-18.48q.15-38.51.31-77c.07-16.07.35-32.15.16-48.23q-.24-20.51-1.4-41a354.7,354.7,0,0,0-7.05-54.89c-.79-3.67-1.77-7.29-2.58-11a33,33,0,0,1-.9-5.66A5.92,5.92,0,0,1,924,744q17-2.17,34-4.34c11.57-1.46,23-3.8,34.45-5.9,9.58-1.76,19.19-3.34,28.8-4.93,3.54-.59,4.24-.1,5.27,3.46,1.43,4.94,1.8,10.06,2.4,15.14.59,4.91,1.21,9.83,2,14.72C1031.43,765.37,1032,766.21,1033.5,767.79Z" transform="translate(-231.84 -130.4)"/><path class="cls-1" d="M1464.38,915.75a37.7,37.7,0,0,1,3.36,3.13,62.17,62.17,0,0,1,4.69,6.07,285.71,285.71,0,0,1,23.74,44.34,90.86,90.86,0,0,1,2.72,8.67,4.6,4.6,0,0,1-.89,4.29,55.65,55.65,0,0,1-3.66,4.44c-11.61,12.36-25.65,21-41.43,27a160.8,160.8,0,0,1-32.19,8.23,237.25,237.25,0,0,1-48.07,2.31c-24.87-1.2-48.82-6.4-70.74-18.64-36.6-20.42-60.11-50.9-69.4-92a176.18,176.18,0,0,1-3.88-29.92,202.62,202.62,0,0,1,1.6-37.58c4.63-34,18.24-63.72,42.9-88,18.08-17.79,39.61-29.18,64.34-34.64a166.23,166.23,0,0,1,43.12-3.7c31,1.31,58,12.28,81,33.18,16.75,15.25,29.77,33.14,37.9,54.41a133.94,133.94,0,0,1,8,33.48,141.9,141.9,0,0,1,.8,21.32,42.14,42.14,0,0,1-2.38,13.4,35.67,35.67,0,0,1-3.76,7.45c-3.46,5-8.46,7.66-14.49,8.34-8.34.94-16.67,1.88-25,2.76-8.51.89-17,1.69-25.52,2.57-6.84.7-13.66,1.49-20.5,2.18-5.72.58-11.45,1.09-17.18,1.62-6.37.59-12.73,1.19-19.1,1.75s-12.58,1.06-18.87,1.58q-11,.9-22,1.78c-3,.24-6.06.43-9.09.66-1.26.1-2.51.25-4,.4a15.52,15.52,0,0,0,.25,2,37.9,37.9,0,0,0,13.22,20.09c6.95,5.62,14.95,9.19,23.46,11.65a95.51,95.51,0,0,0,35.61,3,108.26,108.26,0,0,0,42.44-13.31c6.93-3.8,13.44-8.36,20.14-12.57Zm-129.26-64.56c10.69-.36,21.91-1.4,33.08-2.84q14.73-1.89,29.43-4a33.89,33.89,0,0,0,6.42-1.8,3.32,3.32,0,0,0,2.39-3.71c-.18-1.91-.15-3.84-.42-5.73-1.83-12.79-8.38-22.81-18.39-30.67-8.88-7-19.13-9.37-30.22-8-8.83,1.08-16.16,5.27-22.16,11.79a51.83,51.83,0,0,0-13.49,29.1,55,55,0,0,0-.46,8.61c.13,4.58,2.67,7,7.25,7.22C1330.54,851.27,1332.55,851.19,1335.12,851.19Z" transform="translate(-231.84 -130.4)"/><path class="cls-1" d="M1617.69,764.36c3.86-2.43,7.49-4.89,11.27-7.08,9.28-5.35,18.53-10.73,28.47-14.81a107.65,107.65,0,0,1,30.51-7.85c5.88-.57,11.81-.83,17.68.34a17.23,17.23,0,0,1,3,.87c3.26,1.27,4.17,2.68,4.21,6.13.09,8-.91,15.95-1.7,23.91-1.14,11.37-2.35,22.73-1.87,34.21.46,10.95.51,21.91.73,32.86,0,1,0,1.93,0,2.88-.32,5.18-3.48,8.66-8.62,9.35a32.6,32.6,0,0,1-5.5.27c-8.94-.39-17.88-.94-26.83-1.27a99.82,99.82,0,0,0-24.55,1.9c-11.2,2.41-17.58,9.25-19.39,20.38a86.4,86.4,0,0,0-1.38,14c.07,18.72.43,37.43.65,56.15.1,8.64,0,17.28.26,25.91.33,9.83,1.07,19.64,1.57,29.46.29,5.51.54,11,.66,16.54.07,3.76-1.53,6.13-5.2,7.1a46,46,0,0,1-9.21,1.31c-20.3,1-40.61,1-60.92.45-7.11-.19-14.2-.85-21.29-1.39a15.85,15.85,0,0,1-4-.91,8,8,0,0,1-5.67-7.56c-.08-1,0-2.08,0-3.12q.27-67.79.54-135.58c.06-13.68-.22-27.35-1.08-41-1.46-23.25-4.21-46.32-10-68.94-.55-2.17-1.16-4.32-1.63-6.51a15.81,15.81,0,0,1-.31-3.57,5.18,5.18,0,0,1,4.6-5.28c3.56-.54,7.13-.91,10.7-1.39,7.67-1,15.34-2.13,23-3.17,18.68-2.52,37-6.84,55.58-10.17,1.18-.21,2.36-.44,3.55-.58,2.5-.3,3.65.11,4.6,2.45a37.86,37.86,0,0,1,2.35,8c.71,4.33.92,8.74,1.53,13.09.45,3.15,1.15,6.28,1.86,9.39A4.7,4.7,0,0,0,1617.69,764.36Z" transform="translate(-231.84 -130.4)"/><path class="cls-1" d="M823.18,764.37c14-9,28.07-17.43,43.51-23.35a98.75,98.75,0,0,1,34.37-6.81,70,70,0,0,1,10,.79,14.41,14.41,0,0,1,4.5,1.55,4.93,4.93,0,0,1,2.87,4.87c-.13,3.68-.18,7.36-.5,11-1,10.91-2.43,21.78-3,32.71-.48,8.84-.07,17.75.06,26.62.11,7.44.39,14.87.56,22.31a15.2,15.2,0,0,1-.27,2.85c-.78,4.7-3.66,7.57-8.39,8.23a30.58,30.58,0,0,1-5.49.28c-9-.39-17.89-.94-26.83-1.26a97.41,97.41,0,0,0-24.79,1.93c-10.72,2.37-17,8.82-19.12,19.56a80.51,80.51,0,0,0-1.49,16.45q.29,27,.61,54c.11,9.75.11,19.52.42,29.27.25,7.91.92,15.8,1.31,23.71.32,6.39.48,12.78.76,19.17.21,5-2.64,7-6,7.71a55.06,55.06,0,0,1-8.79,1c-19.66,1-39.34,1-59,.46-7.66-.2-15.31-.9-23-1.44a14.65,14.65,0,0,1-3.48-.81c-3.65-1.21-5.73-3.73-5.87-7.61-.13-3.28-.11-6.56-.09-9.84q.16-44.38.36-88.78c.06-15.44.36-30.88.17-46.32-.16-12.95-.59-25.91-1.39-38.83a353.43,353.43,0,0,0-9-62.32c-.87-3.57-1.78-7.13-2.54-10.72a5.91,5.91,0,0,1,5.43-7.44c5.72-.54,11.42-1.37,17.11-2.15,7.36-1,14.75-1.87,22-3.17,16.42-2.94,32.8-6.12,49.2-9.18,1.33-.25,2.68-.42,4-.65a3.38,3.38,0,0,1,3.93,2,20.47,20.47,0,0,1,1.91,5.14c.79,4.72,1.25,9.49,2,14.23q.82,5.56,1.94,11.08A5.44,5.44,0,0,0,823.18,764.37Z" transform="translate(-231.84 -130.4)"/></g><g id="Layer_7" data-name="Layer 7"><path class="cls-1" d="M378.46,369.12a24.65,24.65,0,0,0,3.06.4c6.88.12,13.76.12,20.63.27,12.23.27,24.48.32,36.69,1,22.41,1.25,43.75,6.56,63,18.53,27.92,17.36,45.26,42.25,52.16,74.4,3.25,15.14,3.58,30.44,2.52,45.82a147.62,147.62,0,0,1-8.76,41.85,114.18,114.18,0,0,1-24.94,40c-14.79,15.29-32.78,24.74-53.5,29.17a135.8,135.8,0,0,1-32.41,2.9c-10.07-.3-20.13-.89-30.19-1.28q-12-.47-24-.72a15,15,0,0,0-4.25.58,7.1,7.1,0,0,0-5.37,6.61,15.51,15.51,0,0,0-.07,2.64c.59,9.33,1.17,18.67,1.8,28,.77,11.25,1.66,22.49,2.34,33.74.31,5.17-1.25,6.67-6.39,6.57-16.55-.34-33.1-.75-49.64-1.09-11.12-.23-22.23-.54-33.35-.54-6.12,0-8-2.4-7.9-7.87q.56-42.95,1-85.89c.27-31.28.52-62.55.55-93.82,0-13.19-.46-26.39-.91-39.57q-.73-21.22-1.88-42.42c-.67-12.61-1.56-25.21-2.37-37.82-.28-4.31-.67-8.61-.93-12.91-.18-3.05.59-4.4,3.55-5.05a71.2,71.2,0,0,1,10.18-1.4c17.8-1.26,35.63-1.43,53.46-1.67a28.53,28.53,0,0,0,3.29-.44Zm-9.12,129.21h.07c0,1.84,0,3.68,0,5.52.4,13.35.85,26.69,1.21,40a2.67,2.67,0,0,0,2.11,2.81,54.84,54.84,0,0,0,7.24,1.53,279.81,279.81,0,0,0,35.92,1.34,67.12,67.12,0,0,0,14.72-1.85c14.59-3.5,24.88-11.91,29.9-26.29A63.25,63.25,0,0,0,463.7,505c.72-10,.14-19.82-2.72-29.44-3.09-10.42-8.89-18.88-18.39-24.51-7.74-4.59-16.26-6.61-25.13-7.12a253.17,253.17,0,0,0-32.82.55A93.53,93.53,0,0,0,374,446.19a3.86,3.86,0,0,0-3.44,4c-.21,4.55-.7,9.09-.79,13.64C369.56,475.31,369.48,486.82,369.34,498.33Z" transform="translate(-231.84 -130.4)"/><path class="cls-1" d="M1233.2,704.64l-8.78-1c-33-3.67-60.8-17.26-81.81-43.47-11.44-14.28-18.27-30.67-21.65-48.57a153,153,0,0,1-2.28-35.36c.8-17.89,4.2-35.23,11.93-51.51,10.56-22.26,26.32-39.75,48.15-51.48a108.88,108.88,0,0,1,35.17-11.4,135.12,135.12,0,0,1,30.13-1.28c20.13,1.39,38.41,8,54.4,20.46,18.58,14.44,32.21,32.53,39.51,55.09a109.89,109.89,0,0,1,5,40,33,33,0,0,1-2.19,10.28c-2.7,6.91-7.68,10.81-15.1,11.56-14.55,1.47-29.1,3-43.65,4.45-14.32,1.43-28.64,2.84-43,4.12-10.9,1-21.83,1.74-32.75,2.6-2.31.18-4.63.33-6.94.54-.69.06-1.37.24-2.29.42.26,1.06.45,2,.73,2.86a30.81,30.81,0,0,0,11.59,15.77,56,56,0,0,0,21.41,9.28c18.07,3.95,35.45,1.5,52.19-6a127.72,127.72,0,0,0,11.79-6.38c3.8-2.22,7.47-4.65,11.2-7,1.91-1.19,2.17-1.27,3.66.4a63.18,63.18,0,0,1,5.34,6.76,228.79,228.79,0,0,1,14.83,26.59c1.67,3.44,3.22,7,4.56,10.56,2.2,5.88,1.93,6.78-2.31,11.31-10.32,11-22.93,18.29-37.1,23.06a136.92,136.92,0,0,1-31.17,6.39c-2.22.2-4.46.33-6.69.54a15.24,15.24,0,0,0-1.84.42Zm-27-139.16v-.18c2.56-.13,5.13-.15,7.67-.41,11.52-1.21,23.05-2.43,34.56-3.77a73.31,73.31,0,0,0,9.87-1.84c2.87-.75,3.37-1.81,3.18-4.76-.75-11.47-5.89-20.65-14.78-27.71-8.29-6.58-17.75-8.51-28-6.08-7,1.65-12.35,5.82-16.72,11.39a42.31,42.31,0,0,0-9,26.53c0,4.64,2.11,6.74,6.75,6.83C1201.89,565.52,1204.05,565.48,1206.21,565.48Z" transform="translate(-231.84 -130.4)"/><path class="cls-1" d="M952.82,545a17.94,17.94,0,0,0,.24,2.11c4,15,4.86,30.3,4,45.7-.93,16.68-4.38,32.84-12,47.83-16,31.64-41.35,51.58-76.05,59.06a140.05,140.05,0,0,1-65.35-1.32c-37.78-9.77-71.72-41.45-80.21-85.43a148.74,148.74,0,0,1-1.93-41.8c.46-5,1.15-10,1.74-15l-.15,0c-2.08,3.9-5.58,5-9.68,4.86-5.27-.21-10.54-.49-15.81-.76-8.79-.45-17.55-.64-26.27,1.16-9.29,1.93-14.58,7.51-16,16.77a79.43,79.43,0,0,0-1,11.2c-.09,8.64.07,17.28.16,25.92.12,11,.13,22.08.46,33.11s1,21.89,1.5,32.83c.16,3.6.3,7.19.32,10.79,0,3-1.28,4.88-4.23,5.62a37,37,0,0,1-7.34,1c-18.86.87-37.73.94-56.6,0-3.27-.16-6.54-.48-9.79-.85-5.06-.58-7.35-3.18-7.33-8.3.14-33.2.36-66.4.42-99.6,0-12.63-.05-25.28-.58-37.9-.9-21.61-3.42-43-9.12-64a22.35,22.35,0,0,1-.69-3.52,4.58,4.58,0,0,1,4.25-5.36c9.58-1.3,19.18-2.43,28.74-3.91,8.6-1.33,17.14-3,25.7-4.6,6-1.11,12.09-2.3,18.13-3.45.47-.09,1-.09,1.43-.18a2.9,2.9,0,0,1,3.61,2,30.67,30.67,0,0,1,1.74,6c.63,4.1,1,8.26,1.49,12.38a45.21,45.21,0,0,0,1.12,5.63,4.84,4.84,0,0,0,1.94,3.25c7.14-5.19,14.91-9.29,22.65-13.41a92.47,92.47,0,0,1,27.45-9.74c6.48-1.15,13-1.76,19.56-.73a15.41,15.41,0,0,1,2.33.53c3.25,1,4.31,2.32,4.13,5.77-.29,5.59-.55,11.19-1.23,16.74a245.81,245.81,0,0,0-1.41,40.23c.21,4.95.26,9.91.37,14.87a5.86,5.86,0,0,0,.42,2.49c.22-.76.47-1.52.65-2.3,4.59-19.61,13.28-37.09,26.9-52,15.32-16.81,34.27-27.21,56.41-32a150.19,150.19,0,0,1,40.79-2.82c17,1,33.39,4.72,48.56,12.73C922.55,490,940.06,510.16,950,537a11.69,11.69,0,0,0,1.41,2.93,12.27,12.27,0,0,0,.28-1.42c.38-6,.94-12,1.07-18,.11-5.51-.21-11-.4-16.54-.17-5-.38-9.91-.66-14.86-.13-2.29,1-3.58,3-4.35,3.42-1.31,7-1.5,10.6-1.76a45.24,45.24,0,0,0,5.47-.55c3.6-.7,5-2.4,5.38-6a213.52,213.52,0,0,0,.65-29.71q-.56-17.62-.53-35.27c0-4,.84-7.92,1.32-11.89a8.57,8.57,0,0,1,.35-1.39c1.14-3.7,2-4.17,5.93-3.79,7.67.75,15,3,22.58,4.33,6.91,1.22,13.87,2.21,20.83,3.18,5.78.8,11.57,1.44,17.36,2.15,3.25.4,6.51.78,9.76,1.19a9.93,9.93,0,0,1,1.86.39c2.07.7,2.68,1.5,2.69,3.69,0,2.8,0,5.6-.12,8.39-.51,8-1.21,15.95-1.67,23.93q-.71,12.33-1,24.68a20.66,20.66,0,0,0,.88,6.13c1,3.57,2.95,5,6.65,5,6.08,0,12.15-.24,18.23-.41,10.23-.28,20.46-.6,30.69-.9.32,0,.64,0,1,0,2.72,0,4.75.75,4.42,4.73-.51,6.14-.85,12.29-1.53,18.4a191.71,191.71,0,0,0-.58,26.36c.18,6.24.23,12.48.26,18.72,0,2.71-1.23,4.2-3.88,4.63a26.19,26.19,0,0,1-4.77.3c-15-.21-30.07-.48-45.1-.7-3.33-.05-4.19.62-4.87,3.95a24.63,24.63,0,0,0-.5,5c0,13.12,0,26.24.23,39.36a70.13,70.13,0,0,0,2.2,17.33,18.42,18.42,0,0,0,12.18,13.16,41.29,41.29,0,0,0,21.75,1.68c6-1.09,11.86-2.57,17.82-3.74a47.45,47.45,0,0,1,7.6-.88c3.11-.1,4.67,1.41,4.61,4.52-.09,4.63-.32,9.27-.76,13.88-1,10.5-2.73,20.94-2.69,31.53,0,.24,0,.48,0,.72a8.8,8.8,0,0,1-4.53,7.89,126.5,126.5,0,0,1-25.35,11.88,135.28,135.28,0,0,1-34.21,6.92,150.45,150.45,0,0,1-29.93-.6,78.77,78.77,0,0,1-22.84-6.07c-15.08-6.82-23.7-18.46-26.05-34.81a92.76,92.76,0,0,1-.69-15.8q.67-23.75,1.36-47.5.51-19.07,1-38.14,0-1,0-1.92c-.14-5.76-3.3-9.23-9.07-9.8a42.47,42.47,0,0,0-5.75-.13C960,547.15,956.36,547.55,952.82,545ZM880.67,582.7a49.79,49.79,0,0,0-9.92-30.82c-6.77-9.24-15.63-14.94-27.21-16-9.93-.92-19.08,1.14-27.17,7.14a45.53,45.53,0,0,0-12.82,15c-5,9.12-6.55,18.92-5.8,29.21a48.37,48.37,0,0,0,13,30.25c9.43,10.2,21.21,13.81,34.78,12,10.29-1.38,18.34-6.69,24.67-14.73C877.47,605.47,880.69,594.8,880.67,582.7Z" transform="translate(-231.84 -130.4)"/><path class="cls-1" d="M1548.86,498.74c13.65-8.81,27.09-17.46,41.67-24.14a87.53,87.53,0,0,1,22.55-7.15,62.8,62.8,0,0,1,8.09-.81c12.59-.37,24.89,1.23,36.67,5.87,9.59,3.77,18.08,9.2,24.83,17.11a49,49,0,0,1,11.6,26.64,95.86,95.86,0,0,1,.61,11.24c.11,27,.13,54.07.21,81.11q.11,40.8.26,81.59c0,.48,0,1,0,1.44-.07,3.93-1.83,6.19-5.75,6.66a110,110,0,0,1-12.43.86q-21,.17-42,0c-4.87,0-9.74-.54-14.6-.85a15.26,15.26,0,0,1-2.13-.35c-4.38-.94-6.64-3.49-7-7.93a25,25,0,0,1,0-2.87c.4-17.44.9-34.87,1.19-52.3.16-9.59,0-19.19-.07-28.79-.14-12.31-.41-24.63-.6-37a50.49,50.49,0,0,0-1.81-13.5c-3.06-10.5-10-16.27-20.86-17.78a31.62,31.62,0,0,0-17.75,2.67,55.47,55.47,0,0,0-13.6,8.47,45.9,45.9,0,0,0-5,5.12,15.51,15.51,0,0,0-3.61,10.39q.12,61.56.09,123.11a36,36,0,0,1-.07,3.6c-.43,4.28-2.74,6.74-7,7.16s-8.77.77-13.16.8c-12.79.11-25.59.19-38.38,0-6-.08-12-.8-17.93-1.26a8.48,8.48,0,0,1-2.08-.53,6.45,6.45,0,0,1-4.76-6.46c-.09-3.6,0-7.2,0-10.8.16-35.12.45-70.23.42-105.35,0-12.14-.59-24.3-1.34-36.43a261.45,261.45,0,0,0-6.59-46c-.38-1.55-.82-3.09-1.14-4.66a15.06,15.06,0,0,1-.31-2.84c0-2.91,1.51-4.72,4.34-5.09,4.2-.56,8.41-1,12.61-1.54,12.12-1.57,24.24-3.1,36.24-5.47,9.16-1.82,18.38-3.34,27.59-4.93,4.31-.75,5-.37,5.81,4,.84,4.71,1.27,9.49,2,14.23.44,3.08.91,6.16,1.52,9.21C1547.28,496.56,1547.59,498,1548.86,498.74Z" transform="translate(-231.84 -130.4)"/><path class="cls-1" d="M1355.06,609.75c-.13-17.75-.07-35.51-.45-53.25-.28-13.35-1.06-26.68-1.71-40-.57-11.74-1.82-23.42-3.32-35.08a11.43,11.43,0,0,1-.08-1.43c0-2.66,1.29-4.21,3.91-4.59a13.77,13.77,0,0,1,2.87-.11c6.3.41,12.61.73,18.89,1.33,11.23,1.08,22.44,1.85,33.74.81,8.51-.79,17.06-1.14,25.59-1.65a22.76,22.76,0,0,1,3.6.06c2.5.24,3.73,1.58,3.79,4.06a25,25,0,0,1-.12,2.87c-.8,8.59-1.79,17.17-2.38,25.78-.9,12.92-1.78,25.85-2.18,38.79-.48,15.82-.73,31.67-.6,47.5.22,27,.82,54,1.24,81.08q.12,7.8.13,15.6c0,3.75-1.51,5.66-5.18,6.33a55.31,55.31,0,0,1-7.37.88q-29.25,1.41-58.51,0a59.3,59.3,0,0,1-7.13-.87,17.67,17.67,0,0,1-3.86-1.22,3.4,3.4,0,0,1-2.23-3.38c0-2.48-.13-5-.09-7.43q.53-38,1.11-76Z" transform="translate(-231.84 -130.4)"/><path class="cls-1" d="M1396.71,375.71c13.81.05,25.69,4.71,35.38,14.6a35.15,35.15,0,0,1,10.26,24.61,55,55,0,0,1-1.61,15.45c-2.9,10.87-9.6,18.41-20.08,22.54a56.34,56.34,0,0,1-15.61,3.47,76.55,76.55,0,0,1-15.8,0c-10.9-1.24-20.56-5.16-28.39-13.06a35.48,35.48,0,0,1-10-21.27,42.36,42.36,0,0,1,.74-15.23,34.55,34.55,0,0,1,9.23-16.55,46.22,46.22,0,0,1,27.79-13.82C1391.29,376.08,1394,375.94,1396.71,375.71Z" transform="translate(-231.84 -130.4)"/></g></svg>